<svg xmlns="http://www.w3.org/2000/svg" width="384" height="512"><rect id="backgroundrect" width="100%" height="100%" x="0" y="0" fill="none" stroke="none"/><g class="currentLayer" style=""><title>Layer 1</title><path d="M216 23.858c0-23.802-30.653-32.765-44.149-13.038C48 191.851 224 200 224 288c0 35.629-29.114 64.458-64.85 63.994C123.98 351.538 96 322.22 96 287.046v-85.51c0-21.703-26.471-32.225-41.432-16.504C27.801 213.158 0 261.332 0 320c0 105.869 86.131 192 192 192s192-86.131 192-192c0-170.29-168-193.003-168-296.142z" id="svg_1" class="selected" fill="#ffffff" fill-opacity="1"/></g></svg>