<svg xmlns="http://www.w3.org/2000/svg" width="640" height="512" style=""><rect id="backgroundrect" width="100%" height="100%" x="0" y="0" fill="none" stroke="none"/><g class="currentLayer" style=""><title>Layer 1</title><path d="M224 192c-35.3 0-64 28.7-64 64s28.7 64 64 64 64-28.7 64-64-28.7-64-64-64zm400 224H380.6c41.5-40.7 67.4-97.3 67.4-160 0-123.7-100.3-224-224-224S0 132.3 0 256s100.3 224 224 224h400c8.8 0 16-7.2 16-16v-32c0-8.8-7.2-16-16-16zm-400-64c-53 0-96-43-96-96s43-96 96-96 96 43 96 96-43 96-96 96z" id="svg_1" class="selected" fill="#b80404" fill-opacity="1"/></g></svg>